<?xml version="1.0" encoding="iso-8859-1"?>
<!-- Generator: Adobe Illustrator 17.1.0, SVG Export Plug-In . SVG Version: 6.00 Build 0)  -->
<!DOCTYPE svg PUBLIC "-//W3C//DTD SVG 1.1//EN" "http://www.w3.org/Graphics/SVG/1.1/DTD/svg11.dtd">
<svg version="1.1" id="Capa_1" xmlns="http://www.w3.org/2000/svg" xmlns:xlink="http://www.w3.org/1999/xlink" x="0px" y="0px"
	 viewBox="0 0 512 512" style="enable-background:new 0 0 512 512;" xml:space="preserve">
<g>
	<path d="M437.022,74.984C388.67,26.63,324.381,0,256,0C187.624,0,123.338,26.63,74.984,74.984S0,187.624,0,256
		c0,68.388,26.63,132.678,74.984,181.028C123.335,485.375,187.621,512,256,512c68.385,0,132.673-26.625,181.021-74.972
		C485.372,388.679,512,324.389,512,256C512,187.622,485.372,123.336,437.022,74.984z M425.708,425.714
		C380.381,471.039,320.111,496,256,496c-64.106,0-124.374-24.961-169.703-70.286C40.965,380.386,16,320.113,16,256
		c0-64.102,24.965-124.37,70.297-169.702C131.63,40.965,191.898,16,256,16c64.108,0,124.378,24.965,169.708,70.297
		C471.037,131.628,496,191.896,496,256C496,320.115,471.037,380.387,425.708,425.714z"/>
	<path d="M430.038,114.969c-2.784-3.432-7.821-3.956-11.253-1.172c-3.431,2.784-3.956,7.822-1.172,11.252
		C447.526,161.919,464,208.425,464,256c0,55.567-21.635,107.803-60.919,147.085C363.797,442.367,311.563,464,256,464
		c-51.26,0-100.505-18.807-138.663-52.956c-3.292-2.946-8.35-2.666-11.296,0.626c-2.946,3.292-2.666,8.35,0.626,11.296
		C147.763,459.745,200.797,480,256,480c59.837,0,116.089-23.297,158.394-65.601C456.701,372.094,480,315.84,480,256
		C480,204.766,462.256,154.681,430.038,114.969z"/>
	<path d="M48,256c0-114.691,93.309-208,208-208c51.26,0,100.504,18.808,138.662,52.959c3.293,2.948,8.351,2.666,11.296-0.625
		c2.947-3.292,2.667-8.35-0.625-11.296C364.237,52.256,311.203,32,256,32c-59.829,0-116.079,23.301-158.389,65.611
		C55.301,139.92,32,196.171,32,256c0,51.24,17.744,101.328,49.963,141.038c1.581,1.949,3.889,2.96,6.217,2.96
		c1.771,0,3.553-0.585,5.036-1.788c3.431-2.784,3.956-7.822,1.172-11.253C64.474,350.088,48,303.58,48,256z"/>
	<path d="M168,127.654c-22.056,0-40,17.944-40,40v176c0,22.056,17.944,40,40,40h176c22.056,0,40-17.944,40-40v-176
		c0-22.056-17.944-40-40-40H168z M344,367.654H168c-13.234,0-24-10.766-24-24v-120h47.528c-4.808,9.647-7.528,20.509-7.528,32
		c0,39.701,32.299,72,72,72s72-32.299,72-72c0-11.491-2.72-22.353-7.528-32H368v120C368,356.888,357.234,367.654,344,367.654z
		 M312,255.654c0,30.878-25.122,56-56,56s-56-25.122-56-56s25.122-56,56-56S312,224.776,312,255.654z M368,167.654v40h-58.392
		c-13.192-14.718-32.333-24-53.608-24s-40.416,9.282-53.608,24H144v-40c0-10.429,6.689-19.322,16-22.624v46.624c0,4.418,3.582,8,8,8
		s8-3.582,8-8v-48h8v48c0,4.418,3.582,8,8,8s8-3.582,8-8v-48h144C357.234,143.654,368,154.42,368,167.654z"/>
	<path d="M256,215.654c-4.418,0-8,3.582-8,8s3.582,8,8,8c13.234,0,24,10.766,24,24c0,4.418,3.582,8,8,8s8-3.582,8-8
		C296,233.598,278.056,215.654,256,215.654z"/>
	<path d="M312,159.654v32c0,4.418,3.582,8,8,8h32c4.418,0,8-3.582,8-8v-32c0-4.418-3.582-8-8-8h-32
		C315.582,151.654,312,155.236,312,159.654z M328,167.654h16v16h-16V167.654z"/>
</g>
<g>
</g>
<g>
</g>
<g>
</g>
<g>
</g>
<g>
</g>
<g>
</g>
<g>
</g>
<g>
</g>
<g>
</g>
<g>
</g>
<g>
</g>
<g>
</g>
<g>
</g>
<g>
</g>
<g>
</g>
</svg>
